<svg id="Layer_1" data-name="Layer 1" xmlns="http://www.w3.org/2000/svg" viewBox="0 0 105.56 109.01"><path d="M38.47,10.12A14.59,14.59,0,0,0,41.2,25.24a15.53,15.53,0,0,0,9.51,5.36l3.54.65.19-.25a1.55,1.55,0,0,1,1-.56A15.32,15.32,0,0,0,56.83.54c-.51-.14-1-.26-1.53-.39L54.68,0H51L50.9,0c-.21.06-.42.13-.63.17C44.39,1.41,40.42,4.74,38.47,10.12ZM52.85,4.69h.06A10.65,10.65,0,0,1,63.47,15.34,10.65,10.65,0,0,1,52.83,26h-.06a10.64,10.64,0,0,1,.08-21.27Z"/><path d="M98.77,100.86c2.73-5.07,2.53-10.27-.58-15.46L96.71,83h8.85l-.16-.12-4.14-3.31c-9.51-7.5-15.1-17-16.61-28.14-1.28-9.48-9.34-19.34-21.61-19-1.81.06-3.65,0-5.42,0H53.3l.11-.15-2.84.07c-1.59,0-3.18,0-4.76.06-1.23,0-2.45,0-3.67,0a22.79,22.79,0,0,0-3.93.31A21.61,21.61,0,0,0,21.06,51.17a41.34,41.34,0,0,1-7.9,19.53,56,56,0,0,1-11,10.67C1.42,81.92.71,82.5,0,83.07H9L7.86,84.82c-.1.16-.19.28-.26.41-3.22,5.23-3.46,10.49-.69,15.63A14.53,14.53,0,0,0,20.28,109c23,.09,44.3.08,65.23,0A14.44,14.44,0,0,0,98.77,100.86ZM16.06,74.65c.22-.31.44-.59.65-.88a46.65,46.65,0,0,0,9.08-22.22A16.39,16.39,0,0,1,42.41,37.12c6.92.15,13.93.15,20.83,0A16.31,16.31,0,0,1,79.81,51.19a48.51,48.51,0,0,0,9.78,23.4,1.75,1.75,0,0,1,.22.43l.78,2.13-2.38-1-.9-.37A33.2,33.2,0,0,1,70.87,59.37c-1-2-1.9-4-2.88-6.11l-.21-.45c-.13.71-.26,1.4-.38,2.08q-2.85,16.23-5.7,32.45a2.76,2.76,0,0,1-1.61,2.18C58,90.58,55.94,91.7,54,92.76a2.39,2.39,0,0,1-1.17.33,2.37,2.37,0,0,1-1.18-.34c-2.21-1.22-4.23-2.3-6.16-3.28a2.56,2.56,0,0,1-1.49-2c-1-5.73-1.93-11.46-2.9-17.18L38.44,54.53l-2.9,6C32,68,26,73.17,17.09,76.47a1.06,1.06,0,0,1-.59,0l-.11,0-1.61-.13Zm66.3,3.95L66.7,85.88,70,67.36l1.25,1.55A39.39,39.39,0,0,0,81,77.72ZM39,85.92,24.35,79.05l11.87-9.54Zm-1.56,15.89a15.67,15.67,0,0,1-8.61,2.57c-.47,0-.94,0-1.42-.06a44.44,44.44,0,0,0-4.47-.06q-1.25,0-2.49,0a10.62,10.62,0,0,1-1.25-21.17,8,8,0,0,1,4,.74c5.77,2.67,11.63,5.5,16.66,8,1.46.71,2.88,1.48,4.39,2.29l2.17,1.15,1.48.79-1.47.8c-1,.54-2,1-2.9,1.55C41.42,99.52,39.39,100.58,37.46,101.81Zm48.33,2.42c-5.4.06-10.86.08-16.27.08l-11.42,0H46l-.67-1.49.74-.4,2-1.13c1.46-.81,3-1.65,4.49-2.43Q65.88,92,79.16,85.22c.74-.38,1.52-.7,2.27-1L81.9,84a9.81,9.81,0,0,1,13,5,10.68,10.68,0,0,1-.59,10.3A10.11,10.11,0,0,1,85.79,104.23Z"/></svg>