<svg id="Layer_1" data-name="Layer 1" xmlns="http://www.w3.org/2000/svg" viewBox="0 0 121.81 102.74"><path d="M0,45.23a85.94,85.94,0,0,1,1.48-8.51C6.28,19.23,17,7.12,34.59,2,47-1.69,59.13-.17,70.6,6c.25.13.5.25.73.4a2.37,2.37,0,0,1,.92,3.2,2.42,2.42,0,0,1-3.29.92c-2.56-1.15-5.08-2.41-7.7-3.38A36.69,36.69,0,0,0,50.14,5V6.4q0,20.22,0,40.43a4.47,4.47,0,0,1-1.44,3.46Q34.42,64.51,20.2,78.78c-.34.33-.74.6-1.11.9,10,10.24,30.19,15.14,46.58,7.22-.36-.65-.72-1.28-1.07-1.93a6.44,6.44,0,0,1,1.1-8,5.89,5.89,0,0,0,2-4.82c0-2.5-.37-4.42-2.31-6.26s-2.17-4.62-.91-7.17a54.94,54.94,0,0,1,2.9-5,6.24,6.24,0,0,1,7.11-2.8A6.34,6.34,0,0,0,80,50.06,7.19,7.19,0,0,0,84,45.24c.72-2.91,3.07-4.27,6.27-4.64a59,59,0,0,0-1.94-6.82c-1.29-3.13-2.92-6.12-4.42-9.17-.14-.28-.34-.53-.5-.81a2.35,2.35,0,0,1,.74-3.32,2.25,2.25,0,0,1,3.22.76,65.4,65.4,0,0,1,4.39,8.26c1.43,3.54,2.37,7.27,3.52,10.92l-.29.16c.54.07,1.09.1,1.62.22a6.37,6.37,0,0,1,5.14,5,5.47,5.47,0,0,0,3,3.84c2.21,1.31,4.13,1.94,6.79,1.18s5.13.54,6.69,3q1.45,2.31,2.74,4.73a6.27,6.27,0,0,1-1,7.67,6.56,6.56,0,0,0-2.09,5.25,7.15,7.15,0,0,0,2.27,5.9,6.14,6.14,0,0,1,.84,7.5c-.81,1.5-1.67,3-2.54,4.43a6.44,6.44,0,0,1-7.62,3.13,5.86,5.86,0,0,0-5,.71c-2.25,1.25-3.7,2.62-4.3,5.24s-3.3,4.27-6.18,4.33c-1.67,0-3.33,0-5,0a6.43,6.43,0,0,1-6.44-5,6,6,0,0,0-3.22-4.1c-2.16-1.3-4.08-2-6.57-1.08a5.35,5.35,0,0,1-4.93-1.08,1.37,1.37,0,0,0-1.59-.14C50.83,98.41,34.81,97,20,86.68,8.33,78.52,1.65,67,.21,52.68c0-.35-.14-.69-.21-1ZM15.65,76.3,44.19,47.76,15.42,19.63C.62,35.53,1.92,62.44,15.65,76.3Zm101.46,5.16a6.15,6.15,0,0,0-1-1.45c-2.41-2-3.64-4.44-2.94-7.64a1.67,1.67,0,0,0,0-.59,8.26,8.26,0,0,1,3.21-8.71,1.74,1.74,0,0,0,.32-2.38c-.44-.8-.9-1.58-1.36-2.37-1.85-3.2-1.85-3.23-5.46-2.27a5.78,5.78,0,0,1-5.18-.91,6.65,6.65,0,0,0-1.59-1,8.53,8.53,0,0,1-6-7.22,1.72,1.72,0,0,0-1.9-1.45H92.57c-3.9,0-3.8-.28-4.81,3.6a5.93,5.93,0,0,1-3.28,4,39.74,39.74,0,0,0-3.89,2.26,5.76,5.76,0,0,1-4.76.83c-.73-.18-1.45-.39-2.18-.58a2,2,0,0,0-2.51,1c-.75,1.3-1.48,2.62-2.26,3.91a1.94,1.94,0,0,0,.37,2.76c2.53,2.08,3.78,4.63,3.06,7.95a1.24,1.24,0,0,0,0,.47,8.22,8.22,0,0,1-3.19,8.61,1.79,1.79,0,0,0-.32,2.48c.47.83,1,1.65,1.42,2.47,1.67,2.87,1.53,3.25,5.21,2.14a6,6,0,0,1,5.51,1,25.54,25.54,0,0,0,3.59,2.07,5.75,5.75,0,0,1,3.19,3.77c.19.68.37,1.37.55,2.06A2.07,2.07,0,0,0,90.49,98H95a2,2,0,0,0,2.2-1.75,7.6,7.6,0,0,1,5.36-6.61,1.2,1.2,0,0,0,.41-.23,8.2,8.2,0,0,1,9-1.52,1.67,1.67,0,0,0,2.15-.8c.9-1.49,1.75-3,2.61-4.52A6,6,0,0,0,117.11,81.46ZM45.31,42.23V5A42.64,42.64,0,0,0,18.7,16.17Z"/><path d="M78.75,12.36a2.34,2.34,0,0,1,2.33,2.35,2.37,2.37,0,0,1-4.74-.08A2.38,2.38,0,0,1,78.75,12.36Z"/><path d="M92.69,84.78a12.92,12.92,0,0,1-13.15-13.2,13.2,13.2,0,0,1,26.39.1A12.89,12.89,0,0,1,92.69,84.78Zm.17-21.48a8.27,8.27,0,0,0-8.56,8.42,8.44,8.44,0,0,0,16.87.11A8.25,8.25,0,0,0,92.86,63.3Z"/></svg>