<svg id="Layer_1" data-name="Layer 1" xmlns="http://www.w3.org/2000/svg" viewBox="0 0 101.16 104.07"><path d="M100.72,37.61a12,12,0,0,0,.18-5.53,8.51,8.51,0,0,0-8.65-6.36c-5.3,0-10.61,0-15.92,0H70.77a5.29,5.29,0,0,0-.8.05,2.37,2.37,0,0,0-2,1.89,2.28,2.28,0,0,0,1.19,2.62A4.71,4.71,0,0,0,71,30.6q7,0,14,0h7a4.19,4.19,0,0,1,3.42,1.31,4.19,4.19,0,0,1,.63,3.6L88,77.87c-.49,2.57-1.69,3.57-4.27,3.58H24.5c-2.6,0-3.76-1-4.28-3.55L11.81,36.46c-.22-1.1-.43-2.2-.65-3.33l-.5-2.51H35.38c.95,0,3.17-.24,3.19-2.44A2.2,2.2,0,0,0,38,26.56a3.51,3.51,0,0,0-2.53-.85H29.48q-9.06,0-18.11,0h0A1.88,1.88,0,0,1,9.27,24q-.86-4.27-1.73-8.56C6.68,11.21,5.82,7,5,2.75A3.41,3.41,0,0,0,3.09,0H1.82C.05.91-.24,1.59.16,3.61q1.45,7.23,2.92,14.46L13.93,71.54c.45,2.27.92,4.53,1.38,6.81l.7,3.38-1.51.63a11.31,11.31,0,0,0,4.82,21.71q29,0,58.06,0H90.47a5.23,5.23,0,0,0,.56,0,2.51,2.51,0,0,0,2.24-2.28,2.44,2.44,0,0,0-1.73-2.47,5.63,5.63,0,0,0-1.5-.14H19.52c-.34,0-.67,0-1,0A6.4,6.4,0,0,1,12.76,91c.85-3,3.3-4.65,6.72-4.65H83.83c4.83,0,8-2.63,8.91-7.42q3.48-18.17,7-36.34Z"/><path d="M50.78,12.3v45L49,55.62l-.54-.49L46.21,53c-1.38-1.34-2.76-2.69-4.15-4a2.77,2.77,0,0,0-1.93-.84,2.34,2.34,0,0,0-1.67.71,2.38,2.38,0,0,0-.71,1.7,2.66,2.66,0,0,0,.86,1.89Q45,58.66,51.39,64.87a2.41,2.41,0,0,0,3.62,0q6.42-6.2,12.79-12.46A2.41,2.41,0,0,0,68,48.84a2.47,2.47,0,0,0-3.67.14c-1.36,1.31-2.72,2.64-4.07,4L58,55.1c-.17.16-.34.32-.56.51l-1.79,1.62V12.53a6.43,6.43,0,0,0,0-.76,2.45,2.45,0,0,0-2.47-2.3h-.07C51.66,9.51,50.78,10.56,50.78,12.3Z"/></svg>